<svg xmlns="http://www.w3.org/2000/svg" xmlns:xlink="http://www.w3.org/1999/xlink" version="1.1" width="940" height="788" viewBox="0 0 940 788" xml:space="preserve">
<desc>Created with Fabric.js 3.5.0</desc>
<defs>
</defs>
<rect x="0" y="0" width="100%" height="100%" fill="rgba(255,255,255,0)"/>
<g transform="matrix(1.284 0 0 1.284 429.5138 393.9969)" id="828665">
<path style="stroke: none; stroke-width: 1; stroke-dasharray: none; stroke-linecap: butt; stroke-dashoffset: 0; stroke-linejoin: miter; stroke-miterlimit: 4; is-custom-font: none; font-file-url: none; fill: rgb(72,143,66); fill-rule: nonzero; opacity: 1;" vector-effect="non-scaling-stroke" transform=" translate(-191.15, -256.47)" d="M 352 359.8 c 22.46 0 31.1 19.53 31.1 31.99 c 0 23.14 -66.96 88.23 -164.5 88.23 c -137.1 0 -219.4 -117.8 -219.4 -224 c 0 -103.8 79.87 -223.1 219.4 -223.1 c 99.47 0 164.5 66.12 164.5 88.23 c 0 12.27 -9.527 32.01 -32.01 32.01 c -31.32 0 -45.8 -56.25 -132.5 -56.25 c -97.99 0 -155.4 84.59 -155.4 159.1 c 0 74.03 56.42 160 155.4 160 C 306.5 416 320.5 359.8 352 359.8 z" stroke-linecap="round"/>
</g>
<g transform="matrix(12.4478 0 0 12.4478 470.0002 394.0002)" id="948581">
<path style="stroke: none; stroke-width: 1; stroke-dasharray: none; stroke-linecap: butt; stroke-dashoffset: 0; stroke-linejoin: miter; stroke-miterlimit: 4; is-custom-font: none; font-file-url: none; fill: rgb(143,66,75); fill-rule: nonzero; opacity: 1;" vector-effect="non-scaling-stroke" transform=" translate(-11.95, -12.05)" d="M 23 19.9 L 23 19.9 l 0 -2 c 0 -0.3 -0.2 -0.5 -0.5 -0.5 h -0.8 c -0.1 0 -0.3 -0.2 -0.3 -0.2 l 0 -10.4 c 0 -0.1 0.2 -0.3 0.3 -0.3 h 0.8 c 0.3 0 0.5 -0.2 0.5 -0.5 V 3.6 c 0 -0.3 -0.2 -0.5 -0.5 -0.5 h -7.9 c -0.2 0 -0.4 0.1 -0.5 0.4 l -2.2 8.1 L 9.8 3.5 C 9.7 3.3 9.5 3.1 9.3 3.1 H 1.3 c -0.3 0 -0.5 0.2 -0.5 0.5 v 2.5 c 0 0.3 0.2 0.5 0.5 0.5 l 0.8 0 c 0.1 0 0.3 0.2 0.3 0.3 l 0 10.4 c 0 0.1 -0.2 0.2 -0.3 0.2 H 1.3 c -0.3 0 -0.5 0.2 -0.5 0.5 v 2 c -0.2 0.1 -0.4 0.2 -0.4 0.5 c 0 0.3 0.2 0.5 0.5 0.5 h 0.4 H 4 h 3.7 c 0.3 0 0.5 -0.2 0.5 -0.5 v -2.5 c 0 -0.3 -0.2 -0.5 -0.5 -0.5 H 6.6 v -7.2 l 2.8 10.3 c 0.1 0.2 0.2 0.4 0.5 0.4 h 2.9 c 0.2 0 0.4 -0.1 0.5 -0.4 L 16 10.2 v 7.2 h -1.1 c -0.3 0 -0.5 0.2 -0.5 0.5 v 2.5 c 0 0.3 0.2 0.5 0.5 0.5 h 5 h 2.6 H 23 c 0.3 0 0.5 -0.2 0.5 -0.5 C 23.5 20.1 23.3 19.9 23 19.9 z" stroke-linecap="round"/>
</g>
</svg>